<svg xmlns="http://www.w3.org/2000/svg" viewBox="7302 3009 47.378 59"><defs><style>.a{fill:#0060d1;}</style></defs><g transform="translate(7265.595 3009)"><g transform="translate(36.405)"><path class="a" d="M83.783,27.748A19.392,19.392,0,0,0,78.307,14.4,15.346,15.346,0,0,0,72.5,4.242a20.274,20.274,0,0,0-24.82,0,15.347,15.347,0,0,0-5.8,10.158A19.392,19.392,0,0,0,36.4,27.748a19.96,19.96,0,0,0,8.842,16.286C46.664,52.565,52.783,59,60.094,59s13.43-6.435,14.847-14.966A19.96,19.96,0,0,0,83.783,27.748ZM60.094,2.394c6.907,0,12.9,3.852,15.058,9.232A25.081,25.081,0,0,0,60.094,6.85a25.565,25.565,0,0,0-15.058,4.777C47.194,6.247,53.187,2.394,60.094,2.394ZM38.8,27.748c0-10.2,9.553-18.5,21.295-18.5a24.466,24.466,0,0,1,3.732.285c4.906,2.126,7.948,6.042,7.948,10.251A9.57,9.57,0,0,1,69.63,25.7a13.44,13.44,0,0,0-9.536-4.187c-8.357,0-15.157,8.409-15.157,18.745q0,.247.005.493A17.254,17.254,0,0,1,38.8,27.748ZM60.094,56.606c-6.132,0-11.267-5.569-12.487-12.966A6.6,6.6,0,1,0,48.37,33.8c1.959-5.813,6.476-9.892,11.724-9.892,7.027,0,11.014,7.784,11.723,9.892a6.6,6.6,0,1,0,.763,9.844C71.361,51.037,66.226,56.606,60.094,56.606ZM48.145,39.057a4.208,4.208,0,1,1,4.208,4.208A4.213,4.213,0,0,1,48.145,39.057Zm23.9,0a4.208,4.208,0,1,1-4.208-4.208A4.213,4.213,0,0,1,72.043,39.057Zm3.2,1.691q.005-.246.005-.493a21.28,21.28,0,0,0-4.032-12.717,12.2,12.2,0,0,0,2.95-7.758,12.114,12.114,0,0,0-3.014-7.839c6.132,3.252,10.234,9.121,10.234,15.807A17.253,17.253,0,0,1,75.246,40.748Z" transform="translate(-36.405)"/><path class="a" d="M163.166,299.023a1.2,1.2,0,0,0-1.631.454,3.091,3.091,0,0,1-5.388,0,1.2,1.2,0,1,0-2.085,1.177,5.485,5.485,0,0,0,9.557,0A1.2,1.2,0,0,0,163.166,299.023Z" transform="translate(-135.153 -251.164)"/><path class="a" d="M127.008,238.389a1.2,1.2,0,0,0-1.2-1.2h-1.973a1.2,1.2,0,1,0,0,2.394h1.973A1.2,1.2,0,0,0,127.008,238.389Z" transform="translate(-108.875 -199.332)"/><path class="a" d="M219.629,238.389a1.2,1.2,0,0,0,1.2,1.2H222.8a1.2,1.2,0,1,0,0-2.394h-1.973A1.2,1.2,0,0,0,219.629,238.389Z" transform="translate(-190.383 -199.332)"/></g></g></svg>