<svg xmlns="http://www.w3.org/2000/svg" viewBox="8112 2247 71.333 59"><defs><style>.a{fill:#0060d1;}</style></defs><g transform="translate(8112 2229.357)"><g transform="translate(49.175 17.643)"><g transform="translate(0 0)"><path class="a" d="M144.31,29.722c1.7-2.171,2-4.906.861-7.909a14.349,14.349,0,0,0-2.143-3.746,1.18,1.18,0,0,0-1.811,1.512c.057.07,4.1,5.037,1.236,8.688-4.123,5.257.273,12.19.462,12.483a1.18,1.18,0,0,0,1.981-1.281C144.86,39.412,141.228,33.65,144.31,29.722Z" transform="translate(-140.695 -17.643)"/></g></g><g transform="translate(57.093 17.643)"><g transform="translate(0 0)"><path class="a" d="M166.963,29.722c1.7-2.171,2-4.906.861-7.909a14.356,14.356,0,0,0-2.143-3.746,1.18,1.18,0,0,0-1.811,1.512c.041.05,4.105,5.03,1.236,8.688-4.123,5.257.273,12.19.462,12.483a1.18,1.18,0,0,0,1.981-1.281C167.514,39.412,163.882,33.65,166.963,29.722Z" transform="translate(-163.348 -17.643)"/></g></g><g transform="translate(7.56 18.189)"><path class="a" d="M25.245,31.286c1.7-2.171,2-4.906.861-7.909a14.36,14.36,0,0,0-2.143-3.746,1.18,1.18,0,0,0-1.811,1.512c.042.05,4.105,5.03,1.237,8.688-4.124,5.257.273,12.19.462,12.483a1.179,1.179,0,1,0,1.981-1.281C25.8,40.976,22.163,35.214,25.245,31.286Z" transform="translate(-21.63 -19.207)"/></g><g transform="translate(15.478 18.189)"><path class="a" d="M47.9,31.286c1.7-2.171,2-4.906.861-7.909a14.349,14.349,0,0,0-2.143-3.746,1.18,1.18,0,0,0-1.811,1.512c.042.05,4.105,5.03,1.236,8.688-4.124,5.257.273,12.19.462,12.483a1.18,1.18,0,1,0,1.981-1.281C48.449,40.976,44.817,35.214,47.9,31.286Z" transform="translate(-44.284 -19.207)"/></g><g transform="translate(0 29.042)"><path class="a" d="M67.417,88.548h-2.5A29.262,29.262,0,0,0,38.267,60.622v-1.2a4.935,4.935,0,0,0-2.547-9.164h-.107a4.935,4.935,0,0,0-2.548,9.164v1.2A29.262,29.262,0,0,0,6.418,88.548h-2.5A3.92,3.92,0,0,0,0,92.464v1.475a3.921,3.921,0,0,0,3.916,3.918h63.5a3.921,3.921,0,0,0,3.916-3.918V92.464A3.921,3.921,0,0,0,67.417,88.548ZM33.032,55.2a2.583,2.583,0,0,1,2.58-2.58h.107a2.575,2.575,0,0,1,.937,4.976,1.179,1.179,0,0,0-.748,1.1v1.821h-.483V58.69a1.18,1.18,0,0,0-.748-1.1A2.565,2.565,0,0,1,33.032,55.2ZM67.417,95.5H3.915a1.559,1.559,0,0,1-1.556-1.559V92.464a1.558,1.558,0,0,1,1.556-1.556H5.855l.032,0H48.249a1.18,1.18,0,1,0,0-2.359H8.781A26.891,26.891,0,0,1,35.5,62.87h.324A26.891,26.891,0,0,1,62.552,88.55H55.879a1.18,1.18,0,1,0,0,2.359l9.109,0h2.428a1.558,1.558,0,0,1,1.556,1.556v1.475h0A1.56,1.56,0,0,1,67.417,95.5Z" transform="translate(0 -50.256)"/></g></g></svg>