<svg xmlns="http://www.w3.org/2000/svg" viewBox="7576 2755 47.109 59"><defs><style>.a{fill:#0060d1;}</style></defs><path class="a" d="M51.226,33.536V11.718A1.414,1.414,0,0,1,52.641,10.3H64.089a8.706,8.706,0,1,1,0,17.412H59.163a1.415,1.415,0,0,1,0-2.829h4.926a5.877,5.877,0,1,0,0-11.754H54.056v20.4a1.415,1.415,0,1,1-2.829,0ZM84.937,7.049V38.162c0,4.879-.586,10.377-7.591,13.9l-8.394,4.558-.071.036C65.566,58.218,63.487,59,61.4,59s-4.175-.782-7.515-2.346c-.026-.012-.051-.025-.075-.038l-8.393-4.558c-7-3.519-7.591-9.018-7.591-13.9V7.049C37.828,3.162,41.5,0,46,0H76.761C81.269,0,84.937,3.162,84.937,7.049Zm-2.829,0c0-2.287-2.448-4.219-5.346-4.219H46c-2.9,0-5.346,1.932-5.346,4.219V38.162c0,5.286.99,8.842,6.05,11.377l.041.022,8.376,4.549c5.861,2.742,6.7,2.742,12.513,0l8.379-4.55.042-.022c5.06-2.535,6.05-6.091,6.05-11.377ZM71.916,40.024l-6.15,3.645c-4.149,2.136-4.584,2.137-8.77,0l-6.148-3.644a1.415,1.415,0,1,0-1.443,2.434l6.186,3.667q.038.023.078.043C58.189,47.455,59.8,48.1,61.4,48.1s3.2-.644,5.7-1.933l.074-.041,6.186-3.667a1.415,1.415,0,0,0-1.443-2.434Z" transform="translate(7538.172 2755)"/></svg>