<svg xmlns="http://www.w3.org/2000/svg" viewBox="7306 2247 50 59.352"><defs><style>.a{fill:#0060d1;}</style></defs><g transform="translate(7248.764 2247)"><g transform="translate(57.236)"><g transform="translate(9.974)"><path class="a" d="M180.627,11.731a1.308,1.308,0,0,1-1.308-1.308V1.308a1.308,1.308,0,1,1,2.617,0v9.114A1.308,1.308,0,0,1,180.627,11.731Z" transform="translate(-179.319)"/><path class="a" d="M265.9,11.731a1.308,1.308,0,0,1-1.308-1.308V1.308a1.308,1.308,0,0,1,2.617,0v9.114A1.308,1.308,0,0,1,265.9,11.731Z" transform="translate(-257.628)"/><path class="a" d="M353.216,11.731a1.308,1.308,0,0,1-1.308-1.308V1.308a1.308,1.308,0,0,1,2.617,0v9.114A1.308,1.308,0,0,1,353.216,11.731Z" transform="translate(-337.808)"/></g><path class="a" d="M92.593,697.062H58.544a1.308,1.308,0,0,1,0-2.617H92.593a1.308,1.308,0,1,1,0,2.617Z" transform="translate(-57.236 -637.709)"/><path class="a" d="M498.6,272.858H494.91v-2.617H498.6a7.931,7.931,0,0,0,0-15.862H494.91v-2.617H498.6a10.548,10.548,0,1,1,0,21.1Z" transform="translate(-459.152 -231.194)"/><path class="a" d="M75.568,219.266a18.353,18.353,0,0,1-18.332-18.333V178.688H93.9v22.245A18.354,18.354,0,0,1,75.568,219.266ZM59.853,181.3v19.629a15.716,15.716,0,1,0,31.431,0V181.3Z" transform="translate(-57.236 -164.089)"/></g></g></svg>