<svg xmlns="http://www.w3.org/2000/svg" viewBox="7575 2516 50 29.497"><defs><style>.a{fill:#0060d1;}</style></defs><path class="a" d="M47.089,24.889H45.95v-3.3a3.017,3.017,0,0,0-3.013-3.013H40.908v-1.1A3.017,3.017,0,0,0,37.9,14.461H35.659a3.017,3.017,0,0,0-3.013,3.013v7.4H17.355v-7.4a3.017,3.017,0,0,0-3.013-3.013H12.105a3.017,3.017,0,0,0-3.013,3.013v2.052H7.065a3.017,3.017,0,0,0-3.013,3.013v2.753H2.912A2.966,2.966,0,0,0,0,28.3v2.213A2.967,2.967,0,0,0,2.912,33.53H4.051v3.3a3.017,3.017,0,0,0,3.013,3.013H9.092v1.1A3.017,3.017,0,0,0,12.1,43.958h2.237a3.017,3.017,0,0,0,3.013-3.013V33.14H32.645v7.806a3.017,3.017,0,0,0,3.013,3.013h2.237a3.017,3.017,0,0,0,3.013-3.013V38.893h2.028a3.017,3.017,0,0,0,3.013-3.013V33.128h1.139A2.967,2.967,0,0,0,50,30.115V27.9A2.966,2.966,0,0,0,47.089,24.889ZM2.912,31.758a1.2,1.2,0,0,1-1.139-1.241V28.3a1.2,1.2,0,0,1,1.139-1.241H4.051v4.695Zm4.153,6.311a1.242,1.242,0,0,1-1.241-1.241V22.538A1.242,1.242,0,0,1,7.065,21.3H9.092V38.068H7.065Zm8.518,2.876a1.242,1.242,0,0,1-1.241,1.241H12.105a1.242,1.242,0,0,1-1.241-1.241V17.474a1.242,1.242,0,0,1,1.241-1.241h2.237a1.242,1.242,0,0,1,1.241,1.241Zm1.772-9.578V26.649H32.646v4.718Zm21.781,9.578A1.242,1.242,0,0,1,37.9,42.186H35.659a1.242,1.242,0,0,1-1.241-1.241V17.474a1.242,1.242,0,0,1,1.241-1.241H37.9a1.242,1.242,0,0,1,1.241,1.241Zm5.041-5.065a1.242,1.242,0,0,1-1.241,1.241H40.908V20.35h2.028a1.242,1.242,0,0,1,1.241,1.241Zm4.052-5.765a1.2,1.2,0,0,1-1.139,1.241H45.95V26.661H47.09A1.2,1.2,0,0,1,48.229,27.9Z" transform="translate(7575 2501.539)"/></svg>