<svg xmlns="http://www.w3.org/2000/svg" viewBox="7306 2501 40.513 59"><defs><style>.a{fill:#0060d1;}</style></defs><g transform="translate(7237.013 2501)"><path class="a" d="M142.286,14.684a3,3,0,0,0,2.085-.84,6.81,6.81,0,0,0,11.475,0,3.013,3.013,0,0,0,5.1-2.176v-3A3.017,3.017,0,0,0,159.4,6.037a10.166,10.166,0,0,0-18.579,0,3.017,3.017,0,0,0-1.548,2.633v3A3.018,3.018,0,0,0,142.286,14.684Zm14.639-3.015v-3a1,1,0,0,1,2.01,0v3a1,1,0,0,1-2.01,0Zm-6.817,3.307a4.808,4.808,0,1,1,4.807-4.892v.17A4.813,4.813,0,0,1,150.108,14.976Zm-6.817-3.307a1,1,0,0,1-2.01,0v-3a1,1,0,0,1,2.01,0Zm6.817-9.659A8.114,8.114,0,0,1,157,5.8a3.016,3.016,0,0,0-1.152.691,6.809,6.809,0,0,0-11.476,0,3.019,3.019,0,0,0-1.153-.692A8.114,8.114,0,0,1,150.108,2.01Z" transform="translate(-60.866)"/><path class="a" d="M108.494,98.054H95.888V89.111c.1,0,.192,0,.288,0a12.689,12.689,0,0,0,12.586-11.309,1.005,1.005,0,1,0-2-.218,10.671,10.671,0,0,1-11.017,9.506,3.267,3.267,0,0,0-3.122-2.316H85.859a3.267,3.267,0,0,0-3.2,2.625,12.7,12.7,0,0,0-6.5,10.652H69.992a1,1,0,0,0-1,1v5a1.005,1.005,0,0,0,1.005,1h1.675V124.41a1,1,0,0,0,2.01,0V114.36H84.771l.428,8.148-2.874.947a1.005,1.005,0,1,0,.63,1.909l3.6-1.188a1,1,0,0,0,.689-1.007l-.463-8.809H91.7l-.463,8.809a1,1,0,0,0,.689,1.007l3.6,1.188a1.005,1.005,0,1,0,.63-1.909l-2.874-.947.428-8.148h11.094v10.05a1,1,0,0,0,2.01,0V105.066h1.675a1.005,1.005,0,0,0,1-1v-5A1.006,1.006,0,0,0,108.494,98.054Zm-1,5H80.711a1,1,0,1,0,0,2.01h24.1v7.284H73.677v-7.284h3.015a1,1,0,0,0,0-2.01H71v-2.993h36.492ZM93.878,88.031s0,.008,0,.012V98.054H84.607V88.039a1.253,1.253,0,0,1,1.252-1.252h6.767A1.253,1.253,0,0,1,93.878,88.031ZM82.6,89.82v8.233H78.17A10.691,10.691,0,0,1,82.6,89.82Z" transform="translate(0 -66.415)"/></g></svg>