<svg xmlns="http://www.w3.org/2000/svg" viewBox="7847 2247 54.555 59"><defs><style>.a{fill:#0060d1;}</style></defs><path class="a" d="M70.059,9.7a11.8,11.8,0,0,0-2.834-5.768l-.008-.01a10.958,10.958,0,0,0-3.651-2.746l-.038-.017A11.84,11.84,0,0,0,51.185,2.469l-.014.011a13.9,13.9,0,0,0-3.126,3.66h0l-.019.034a11.857,11.857,0,0,0-1.375,6.894,1.145,1.145,0,0,0,.608.9,4.247,4.247,0,0,0,.672.281,10.843,10.843,0,0,0,5.495,6.347A10.7,10.7,0,0,0,50.49,22.8a1.145,1.145,0,0,0,1.669,1.569A8.471,8.471,0,0,1,53.5,23.211a4.93,4.93,0,0,0,4.514,3.4h.171a4.9,4.9,0,0,0,4.474-3.63,8.461,8.461,0,0,1,3.966,7.108v11.9L56.207,48.752a1.145,1.145,0,1,0,1.247,1.922l10.941-7.1a1.146,1.146,0,0,0,.522-.961V30.093a10.621,10.621,0,0,0-5.844-9.507A10.9,10.9,0,0,0,69.094,11.5a4.289,4.289,0,0,0,.829-1.025A1.143,1.143,0,0,0,70.059,9.7ZM58.185,24.324h-.171a2.772,2.772,0,0,1-2.529-2.9c0-.02,0-.039,0-.059a10.886,10.886,0,0,0,5.143.094C60.536,23.007,59.434,24.324,58.185,24.324Zm.068-4.894a8.566,8.566,0,0,1-7.858-5.142,4.29,4.29,0,0,0,3.064-3.461,16.267,16.267,0,0,0,2.071.132,15.591,15.591,0,0,0,6.585-1.424,4.285,4.285,0,0,0,4.108,3.083,4.222,4.222,0,0,0,.422-.021A8.6,8.6,0,0,1,58.253,19.43Zm7.969-9.1a1.988,1.988,0,0,1-1.986-1.986V7.7a1.145,1.145,0,0,0-1.755-.97,13.036,13.036,0,0,1-6.952,1.934,13.824,13.824,0,0,1-2.924-.31,1.145,1.145,0,0,0-1.388,1.119v.695a1.988,1.988,0,0,1-1.986,1.986,2.009,2.009,0,0,1-.223-.012l-.051-.006-.076-.012q0-.147,0-.294A9.555,9.555,0,0,1,50.03,7.282l.009-.015a11.744,11.744,0,0,1,2.54-2.98l.008-.006a9.55,9.55,0,0,1,9.951-1.058l.1.045a8.65,8.65,0,0,1,2.852,2.156l.02.023a9.517,9.517,0,0,1,2.2,4.2A1.992,1.992,0,0,1,66.222,10.327ZM48.5,39.635a8.776,8.776,0,0,0,3.363-11.6,1.161,1.161,0,0,0-.077-.145,8.779,8.779,0,0,0-15.452,0,1.16,1.16,0,0,0-.075.141,8.776,8.776,0,0,0,3.36,11.6,9.672,9.672,0,0,0-5.247,8.6v4.178a1.146,1.146,0,0,0,.53.966l8.542,5.438a1.146,1.146,0,0,0,1.227,0l8.563-5.41a1.145,1.145,0,0,0,.534-.974l-.02-4.206A9.707,9.707,0,0,0,48.5,39.635ZM44.057,25.571a6.479,6.479,0,0,1,4.972,2.323,18.7,18.7,0,0,1-9.944,0A6.479,6.479,0,0,1,44.057,25.571Zm-6.49,6.49a6.462,6.462,0,0,1,.358-2.126,20.848,20.848,0,0,0,12.265,0,6.49,6.49,0,1,1-12.623,2.126ZM46.091,40.6a2.086,2.086,0,0,1-1.954,1.816H44a2.169,2.169,0,0,1-2.053-1.836,8.818,8.818,0,0,0,4.146.019ZM44.06,56.5l-7.4-4.711V48.239a7.38,7.38,0,0,1,3.333-6.174,4.5,4.5,0,0,0,4,2.647h.139a4.328,4.328,0,0,0,3.917-2.688,7.423,7.423,0,0,1,3.4,6.22l.017,3.572ZM35.832,25.751a1.146,1.146,0,0,0-.368-1.578,10.67,10.67,0,0,0-1.082-.588,10.815,10.815,0,0,0,3.662-3.057,3.993,3.993,0,0,0,5.3-3.773V13.909A13.908,13.908,0,0,0,29.988.012h0C29.675,0,29.384,0,29.1,0A13.906,13.906,0,0,0,15.523,13.909v2.847a3.993,3.993,0,0,0,5.3,3.773,10.805,10.805,0,0,0,4.1,3.267A10.623,10.623,0,0,0,19.2,33.237v9.376a1.145,1.145,0,0,0,.522.961l10.392,6.743A1.145,1.145,0,1,0,31.359,48.4l-9.87-6.4V33.237a8.324,8.324,0,0,1,3.3-6.654,5.077,5.077,0,0,0,4.543,3.6H29.5c2.186,0,3.932-1.979,4.546-4.19q.1.06.2.122A1.146,1.146,0,0,0,35.832,25.751ZM22.348,9.746a8.21,8.21,0,0,0-1.132,4.163v2.847a1.7,1.7,0,0,1-.652,1.339,1.134,1.134,0,0,0-.1.071,1.7,1.7,0,0,1-2.652-1.41V13.909A11.551,11.551,0,0,1,29.152,2.294c.238-.006.482,0,.746.007A11.582,11.582,0,0,1,41.05,13.909v2.847a1.7,1.7,0,0,1-2.653,1.41,1.155,1.155,0,0,0-.1-.071,1.7,1.7,0,0,1-.653-1.339V13.909a8.259,8.259,0,0,0-7.006-8.127,1.146,1.146,0,0,0-1.309,1.044A11.6,11.6,0,0,1,28.9,9.181H23.335A1.145,1.145,0,0,0,22.348,9.746ZM29.5,27.9h-.171c-1.295,0-2.566-1.572-2.566-3.174a1.145,1.145,0,0,0-.037-.289,11.018,11.018,0,0,0,5.264.035C31.917,26.133,30.656,27.9,29.5,27.9Zm-.072-5.418a8.521,8.521,0,0,1-6.753-3.292,3.973,3.973,0,0,0,.827-2.431V13.909a5.93,5.93,0,0,1,.523-2.436h5.7a1.145,1.145,0,0,0,1.074-.748,13.816,13.816,0,0,0,.646-2.388,5.966,5.966,0,0,1,3.91,5.573v2.847a3.972,3.972,0,0,0,.828,2.431A8.52,8.52,0,0,1,29.432,22.478Z" transform="translate(7831.477 2247)"/></svg>