<svg xmlns="http://www.w3.org/2000/svg" viewBox="7848 2501 52.832 59"><defs><style>.a{fill:#0060d1;}</style></defs><g transform="translate(7832.831 2501)"><g transform="translate(15.169 -0.001)"><path class="a" d="M62.205,40.466c-3.8-1.227-10.188,4.664-12.888,7.487l-6.26-9.574L53.122,22.914l.614.368a2.07,2.07,0,0,0,.614.245H54.6a1.128,1.128,0,0,0,.737-.491l12.4-19.025a1.3,1.3,0,0,0,.123-.982,1.128,1.128,0,0,0-.491-.737L64.169.207a1.207,1.207,0,0,0-1.718.368L50.054,19.6a1.207,1.207,0,0,0,.368,1.718l.614.368L41.584,36.17,32.133,21.686l.614-.368a1.207,1.207,0,0,0,.368-1.718L20.719.575A1.207,1.207,0,0,0,19,.207L15.809,2.293a1.009,1.009,0,0,0-.491.737,1.384,1.384,0,0,0,.123.982l12.4,19.025a1.009,1.009,0,0,0,.737.491h.245a.938.938,0,0,0,.614-.245l.614-.368L40.112,38.379l-6.26,9.574c-2.7-2.823-9.083-8.592-12.888-7.487-2.578.736-6.137,6.26-5.769,8.96.614,4.664,11.415,8.592,13.5,9.328h0c.123,0,.245.123.368.123h.614c.123-.123.368-.245.491-.368l4.91-7.61h0l6.505-10.065L53,58.508c0,.123.123.123.245.245l.123.123h.123a.12.12,0,0,1,.123.123H54.1a.451.451,0,0,0,.368-.123h0c2.209-.737,13.011-4.664,13.5-9.328C68.342,46.726,64.783,41.325,62.205,40.466ZM63.924,2.784l1.227.737L54.1,20.582l-.614-.368h0l-.614-.368Zm-45.905.736,1.227-.737L30.292,19.845l-1.227.737ZM17.65,49.058c-.123-1.473,2.7-5.892,4.05-6.26.123,0,.245-.123.491-.123,2.332,0,7.119,3.928,10.31,7.242l-3.928,6.014C24.033,54.336,17.9,51.267,17.65,49.058Zm36.945,7L50.668,50.04c3.314-3.559,8.715-7.855,10.8-7.242,1.473.491,4.3,4.787,4.051,6.26C65.274,51.267,59.259,54.336,54.6,56.054Z" transform="translate(-15.169 0.001)"/><path class="a" d="M116.7,20.331a7.242,7.242,0,1,0,0-14.484,7.177,7.177,0,0,0-7.242,7.242A7.255,7.255,0,0,0,116.7,20.331Zm0-11.906a4.787,4.787,0,1,1-4.787,4.787A4.793,4.793,0,0,1,116.7,8.425Z" transform="translate(-90.289 -4.658)"/></g></g></svg>