<svg xmlns="http://www.w3.org/2000/svg" viewBox="7845 2755 59 59"><defs><style>.a{fill:#0060d1;}</style></defs><g transform="translate(7845 2755)"><path class="a" d="M58.059,30.128H45.191V23.412a.927.927,0,0,0-.006-.1c0-.008,0-.017,0-.025,0-.026-.008-.051-.013-.076,0-.009,0-.019-.007-.028s-.013-.047-.02-.07l-.01-.028c-.008-.022-.017-.044-.027-.065l-.014-.029c-.01-.021-.022-.041-.033-.06L45.04,22.9c-.013-.02-.027-.039-.041-.058l-.017-.023a.946.946,0,0,0-.066-.074l-.007-.007a.9.9,0,0,0-.067-.06l-.006-.005L30.441,11.282v-9.4h8.222V5.4h-5.4a.941.941,0,1,0,0,1.883h6.339a.942.942,0,0,0,.941-.941V.941A.942.942,0,0,0,39.605,0H29.5a.942.942,0,0,0-.941.941v10.34L14.166,22.673l-.006.005q-.035.028-.067.06l-.007.007a.947.947,0,0,0-.066.074L14,22.842c-.014.019-.028.038-.041.058l-.017.027c-.012.02-.023.04-.033.06l-.014.029q-.015.032-.027.065l-.01.028c-.008.023-.014.046-.02.07s-.005.018-.007.028c-.006.025-.01.05-.013.076,0,.008,0,.017,0,.025a.958.958,0,0,0-.006.1v6.716H.941A.942.942,0,0,0,0,31.069V58.059A.942.942,0,0,0,.941,59H58.059A.942.942,0,0,0,59,58.059V31.069A.942.942,0,0,0,58.059,30.128Zm-.941,1.883v3.138H45.191V32.011Zm-43.309,0v3.138H1.883V32.011Zm23.223,9.624V53.351h-6.59V41.635ZM28.559,53.351h-6.59V41.635h6.59Zm-6.59,1.883H37.032v1.883H21.968Zm16.947,1.883V40.693a.942.942,0,0,0-.941-.941H21.027a.942.942,0,0,0-.941.941V57.117H1.883V37.032H13.809V54.293a.941.941,0,0,0,1.883,0V24.353H32.952a.941.941,0,1,0,0-1.883h-15.5L29.5,12.938,41.543,22.47H36.718a.941.941,0,0,0,0,1.883h6.59V54.293a.941.941,0,0,0,1.883,0V37.032H57.117V57.117Z"/><path class="a" d="M37.608,316.667a.942.942,0,0,0-.941.941v3.766a.941.941,0,1,0,1.883,0v-3.766A.942.942,0,0,0,37.608,316.667Z" transform="translate(-32.064 -276.915)"/><path class="a" d="M74.274,316.667a.942.942,0,0,0-.941.941v3.766a.941.941,0,1,0,1.883,0v-3.766A.941.941,0,0,0,74.274,316.667Z" transform="translate(-64.127 -276.915)"/><path class="a" d="M419.275,316.667a.942.942,0,0,0-.941.941v3.766a.941.941,0,0,0,1.883,0v-3.766A.941.941,0,0,0,419.275,316.667Z" transform="translate(-365.819 -276.915)"/><path class="a" d="M382.608,316.667a.942.942,0,0,0-.941.941v3.766a.941.941,0,0,0,1.883,0v-3.766A.942.942,0,0,0,382.608,316.667Z" transform="translate(-333.756 -276.915)"/><path class="a" d="M203.228,219a4.561,4.561,0,1,0,4.561,4.561A4.566,4.566,0,0,0,203.228,219Zm0,7.239a2.678,2.678,0,1,1,2.678-2.678A2.681,2.681,0,0,1,203.228,226.239Z" transform="translate(-173.728 -191.509)"/></g></svg>