<svg xmlns="http://www.w3.org/2000/svg" viewBox="8128 2755 39.961 59"><defs><style>.a{fill:#0060d1;}</style></defs><g transform="translate(8000.219 2755)"><g transform="translate(127.781)"><g transform="translate(0)"><path class="a" d="M383.342,512.089a.941.941,0,0,1,1.882,0v4.761a.941.941,0,0,1-1.882,0Z" transform="translate(-364.303 -473.069)"/><path class="a" d="M337.3,419.833a2.624,2.624,0,0,0,.77,1.859l.04.044a2.633,2.633,0,0,0,3.676-.044l.046-.042a2.64,2.64,0,0,0-.044-3.678l0,0a2.634,2.634,0,0,0-3.718,0l0,0a2.631,2.631,0,0,0-.764,1.859Zm-.563,3.19a4.5,4.5,0,0,1,0-6.374l0,0a4.507,4.507,0,0,1,6.376,0l0,0,0,0a4.5,4.5,0,0,1,.061,6.305l-.061.069a4.506,4.506,0,0,1-6.313.061Z" transform="translate(-319.949 -384.383)"/><path class="a" d="M147.058,257.443a.941.941,0,0,1,0-1.882H166.8a.943.943,0,0,1,.941.941v19.042a19.973,19.973,0,0,1-19.978,19.974v0h0a19.918,19.918,0,0,1-14.126-5.854l0,0a19.91,19.91,0,0,1-5.852-14.128V256.5a.943.943,0,0,1,.941-.941h9.52a.941.941,0,0,1,0,1.882h-8.579v18.1a18.042,18.042,0,0,0,5.3,12.8l0,0,0,0a18.042,18.042,0,0,0,12.8,5.3h0v.006a18.108,18.108,0,0,0,18.1-18.1v-18.1Z" transform="translate(-127.781 -236.522)"/><path class="a" d="M220.254,325.171a.937.937,0,1,1,1.874,0v9.52h0v0a15.171,15.171,0,0,1-4.458,10.761l-.058.052a15.165,15.165,0,0,1-10.7,4.406h0a15.167,15.167,0,0,1-10.759-4.46l0,0a15.176,15.176,0,0,1-4.458-10.763V320.412a.943.943,0,0,1,.941-.941h28.559a.941.941,0,1,1,0,1.882h-27.62v13.34a13.3,13.3,0,0,0,3.906,9.432v0l0,0a13.29,13.29,0,0,0,9.43,3.9h0a13.294,13.294,0,0,0,9.384-3.857l.046-.05a13.294,13.294,0,0,0,3.906-9.43v0h0v-9.522Z" transform="translate(-186.93 -295.671)"/><path class="a" d="M276.472,15.221a.941.941,0,1,1-1.882,0V10.461a8.579,8.579,0,0,0-17.158,0v9.52a.941.941,0,0,1-1.882,0v-9.52a10.46,10.46,0,0,1,17.856-7.4l0,0a10.427,10.427,0,0,1,3.063,7.392Z" transform="translate(-246.031)"/><path class="a" d="M330.86,74.345a.941.941,0,0,1-1.882,0V69.586a3.808,3.808,0,0,0-1.114-2.7l0,0a3.849,3.849,0,0,0-4.16-.83v0a3.816,3.816,0,0,0-1.239.834,3.777,3.777,0,0,0-.835,1.235l0,0h0a3.8,3.8,0,0,0-.286,1.46v9.52a.941.941,0,0,1-1.882,0v-9.52a5.647,5.647,0,0,1,.436-2.18h0a5.686,5.686,0,0,1,3.083-3.088v0l0,0a5.69,5.69,0,0,1,6.2,1.233l0,0,0,0,0,0a5.689,5.689,0,0,1,1.671,4.027v4.759Z" transform="translate(-305.178 -59.125)"/></g></g></g></svg>