<svg xmlns="http://www.w3.org/2000/svg" viewBox="7567 2247 65.117 59"><defs><style>.a{fill:#0060d1;}</style></defs><g transform="translate(7567 2223.001)"><path class="a" d="M65.116,51.97a10.657,10.657,0,0,0-7.142-10.047A20.75,20.75,0,0,0,47.9,24.482l-.579-.347a.956.956,0,0,0-1.447.82v3.279a3.008,3.008,0,0,0-1.882,1.882H41.2a7.088,7.088,0,0,0-6.141,3.563l-2.041,3.573h-9.58A3.128,3.128,0,0,1,20.9,35.944l-2.658-3.721a5.043,5.043,0,0,0-4.1-2.108H2.995A3,3,0,0,0,0,33.11v1.719a9.051,9.051,0,0,0,2.669,6.443l1.939,1.939A10.638,10.638,0,1,0,20.985,54.455H33.377l-.95.133c-4.328.6-6.941.964-6.941,2.645s2.613,2.044,6.941,2.645c1.314.182,3.259.453,4.449.751-1.191.3-3.136.568-4.449.75-4.328.6-6.941.963-6.941,2.643s2.613,2.044,6.941,2.645c1.314.182,3.261.453,4.452.752-1.19.3-3.137.569-4.452.752-4.328.6-6.941.964-6.941,2.645s2.613,2.045,6.941,2.646c1.316.183,3.266.454,4.456.753-1.19.3-3.14.571-4.456.755-3.746.521-6.206.864-6.8,2.038H22.364a2.995,2.995,0,1,0,0,5.989H42.753a2.995,2.995,0,1,0,0-5.989H31.661c.366-.053.716-.1,1.029-.145,4.328-.6,6.941-.966,6.941-2.648s-2.613-2.045-6.941-2.646c-1.315-.183-3.262-.453-4.452-.752,1.19-.3,3.138-.57,4.452-.752,4.328-.6,6.941-.964,6.941-2.645s-2.613-2.044-6.941-2.645c-1.314-.182-3.259-.452-4.449-.751,1.191-.3,3.136-.568,4.449-.75,4.328-.6,6.941-.963,6.941-2.643s-2.613-2.044-6.941-2.645c-1.314-.182-3.261-.453-4.452-.752,1.19-.3,3.137-.569,4.451-.752,3.737-.519,6.194-.861,6.8-2.027h4.5A10.686,10.686,0,0,0,65.116,52.2c0-.039,0-.077,0-.115S65.116,52.009,65.116,51.97ZM43.836,80a1.084,1.084,0,0,1-1.083,1.083H22.364a1.083,1.083,0,0,1,0-2.166H42.753A1.084,1.084,0,0,1,43.836,80ZM54.476,60.7A8.637,8.637,0,1,1,63.2,52.086,8.739,8.739,0,0,1,54.476,60.7ZM46.83,32.154a1.084,1.084,0,0,1-1.083-1.083h0a1.083,1.083,0,1,1,1.083,1.084ZM36.724,34.627a5.172,5.172,0,0,1,4.481-2.6h2.788a3.008,3.008,0,0,0,1.882,1.882v.221a3.126,3.126,0,0,1-3.122,3.122H35.225ZM10.64,60.7a8.729,8.729,0,1,1,8.729-8.729A8.739,8.739,0,0,1,10.64,60.7Zm10.624-8.155c.01-.19.016-.381.016-.573A10.634,10.634,0,0,0,6.34,42.24L4.02,39.92a7.153,7.153,0,0,1-2.109-5.091V33.11a1.084,1.084,0,0,1,1.083-1.083H14.149a3.128,3.128,0,0,1,2.541,1.307l2.658,3.721a5.043,5.043,0,0,0,4.1,2.108h19.31a5.039,5.039,0,0,0,5.033-5.033v-.221a2.994,2.994,0,0,0,0-5.675V26.676a18.838,18.838,0,0,1,8.262,14.77,10.636,10.636,0,0,0-11.428,6.52q-.107.247-.2.5H24.4a.956.956,0,0,0,0,1.911H43.9a10.7,10.7,0,0,0-.159,1.825c0,.115.005.228.009.342H21.265Z"/><path class="a" d="M403.5,216a.956.956,0,0,0,0,1.911,1.593,1.593,0,1,1-1.593,1.593.956.956,0,1,0-1.911,0,3.5,3.5,0,1,0,3.5-3.5Z" transform="translate(-349.028 -167.535)"/><path class="a" d="M59.5,216a.956.956,0,1,0,0,1.911,1.593,1.593,0,1,1-1.593,1.593.956.956,0,0,0-1.911,0,3.5,3.5,0,1,0,3.5-3.5Z" transform="translate(-48.864 -167.535)"/></g></svg>