<svg xmlns="http://www.w3.org/2000/svg" viewBox="7285 2755 81.543 59"><defs><style>.a{fill:#0060d1;}</style></defs><path class="a" d="M80.222,120.358H71.681V108.789a6.715,6.715,0,0,0,5.636-6.483,44.441,44.441,0,0,0-1.7-9.38c-1.507-5.316-3.177-7.792-5.256-7.792S66.611,87.61,65.1,92.926a44.44,44.44,0,0,0-1.7,9.38,6.715,6.715,0,0,0,5.636,6.483v11.569h-8.63v-32.8a4.145,4.145,0,0,0,2.818-3.921V78a1.321,1.321,0,0,0-1.321-1.321h-1.5V75.1h2.906a1.321,1.321,0,0,0,0-2.642H54.861a1.321,1.321,0,1,0,0,2.642h2.906v1.585h-1.5A1.321,1.321,0,0,0,54.949,78v5.636a4.145,4.145,0,0,0,2.818,3.921v32.8H53.149l-.9-4.4h1.2a1.321,1.321,0,1,0,0-2.642H50.546v-2.994h1.5a1.321,1.321,0,1,0,0-2.642h-1.5v-1.585h1.5a1.321,1.321,0,1,0,0-2.642H26.682a1.321,1.321,0,0,0,0,2.642h1.5v1.585h-1.5a1.321,1.321,0,0,0,0,2.642h1.5v2.994H25.273a1.321,1.321,0,1,0,0,2.642h1.2l-.9,4.4H15.322V107.421a11.2,11.2,0,0,0,9.863-11.1c0-9.923-9.578-30.675-9.985-31.553a1.321,1.321,0,0,0-2.4,0c-.408.878-9.985,21.63-9.985,31.553a11.2,11.2,0,0,0,9.863,11.1v12.937H1.321a1.321,1.321,0,1,0,0,2.642h78.9a1.321,1.321,0,1,0,0-2.642ZM66.045,102.306a41.824,41.824,0,0,1,1.489-8.257c1.413-5.17,2.6-6.118,2.826-6.257.226.138,1.414,1.087,2.826,6.257a41.812,41.812,0,0,1,1.489,8.257,4.02,4.02,0,0,1-2.994,3.772v-2.715a1.321,1.321,0,0,0-2.642,0v2.715A4.02,4.02,0,0,1,66.045,102.306ZM57.591,79.322h2.994v4.315a1.5,1.5,0,1,1-2.994,0Zm-52.131,17C5.46,88.987,11.4,74.544,14,68.565c2.6,5.979,8.542,20.421,8.542,27.753a8.555,8.555,0,0,1-7.221,8.439V96.865l3.84-3.84a1.321,1.321,0,0,0-1.868-1.868l-1.972,1.972V90.682a1.321,1.321,0,1,0-2.642,0v6.674l-1.972-1.972a1.321,1.321,0,0,0-1.868,1.868l3.84,3.84v3.665A8.555,8.555,0,0,1,5.46,96.318Zm25.361,9.775H47.9v1.585H30.821Zm0,4.227H47.9v2.994H30.821Zm-1.651,5.636H49.556l.9,4.4H28.272Z" transform="translate(7285 2691)"/></svg>