<svg xmlns="http://www.w3.org/2000/svg" viewBox="8125 2501 46.11 59"><defs><style>.a{fill:#0060d1;}</style></defs><path class="a" d="M71.381,18.742a1.122,1.122,0,1,1-1.952,1.109A1.922,1.922,0,0,0,68.446,19a1.122,1.122,0,1,1,.8-2.1A4.17,4.17,0,0,1,71.381,18.742ZM92.05,54.978a4.022,4.022,0,0,1-8.017.46H53.957a4.022,4.022,0,1,1-4.816-4.4V29.384a1.122,1.122,0,0,1,1.122-1.122h1.842v-3.8a1.122,1.122,0,0,1,1.122-1.122H55A11.157,11.157,0,0,1,63,12.867a1.123,1.123,0,0,1,1.026-1.578h4.228a1.123,1.123,0,0,1,1.026,1.578,11.13,11.13,0,0,1,4.118,2.246,3.425,3.425,0,0,1,.869-1.874,3.423,3.423,0,0,1-.9-2.313V5.277A3.439,3.439,0,0,1,76.8,1.842h.556A1.122,1.122,0,0,1,78.217,0h2.815a1.122,1.122,0,0,1,.861,1.842h.556a3.439,3.439,0,0,1,3.435,3.435v5.649a3.422,3.422,0,0,1-.9,2.313,3.422,3.422,0,0,1,.9,2.313V26.528a3.954,3.954,0,0,1-.4,1.733h2.24a1.122,1.122,0,0,1,1.122,1.122V51.04A4.029,4.029,0,0,1,92.05,54.978ZM75.609,17.705a11.065,11.065,0,0,1,1.66,5.637h1.773a1.122,1.122,0,0,1,1.122,1.122v3.8h1.742a1.735,1.735,0,0,0,1.733-1.733V15.551a1.192,1.192,0,0,0-1.191-1.19,1.122,1.122,0,1,1,0-2.245,1.192,1.192,0,0,0,1.191-1.191V5.277a1.192,1.192,0,0,0-1.191-1.19H76.8a1.192,1.192,0,0,0-1.19,1.19v5.649a1.192,1.192,0,0,0,1.19,1.191,1.122,1.122,0,0,1,0,2.245,1.192,1.192,0,0,0-1.19,1.19v2.154ZM74.1,39.918v5.863h5.713V30.506H58.18V45.781h5.714V39.918a1.122,1.122,0,1,1,2.245,0v5.863h5.713V39.918a1.122,1.122,0,1,1,2.245,0ZM57.246,23.342H75.024a8.838,8.838,0,0,0-1.4-4.579,1.129,1.129,0,0,1-.136-.2,8.889,8.889,0,0,0-16.242,4.784Zm-2.9,4.92H77.92V25.587H54.35ZM51.739,54.978a1.78,1.78,0,0,0-1.588-1.767h-.008a1.777,1.777,0,1,0,1.6,1.768ZM86.6,51.217V30.506h-4.55V46.9a1.122,1.122,0,0,1-1.122,1.122H57.058A1.122,1.122,0,0,1,55.935,46.9v-16.4h-4.55V51.217a4.046,4.046,0,0,1,2.179,1.977H84.425A4.045,4.045,0,0,1,86.6,51.217Zm3.2,3.761a1.777,1.777,0,1,0-1.777,1.777A1.779,1.779,0,0,0,89.805,54.978Z" transform="translate(8079.06 2501)"/></svg>