<svg xmlns="http://www.w3.org/2000/svg" viewBox="8391 2755 62.186 59"><defs><style>.a{fill:#0060d1;}</style></defs><g transform="translate(8391 2739.317)"><g transform="translate(0 15.683)"><path class="a" d="M19.049,50.6H55.7l6.485-23.148H52.642L49.215,16.863,34.925,21.5l1.954,5.952h-.673L32.679,16.863,18.389,21.5l1.954,5.952H12.7L11.117,21.1a7.04,7.04,0,0,0-6.752-5.419H0v2.652H4.366A4.381,4.381,0,0,1,8.6,21.648l7.018,27.463a5.749,5.749,0,0,0-2.4,4.683,5.883,5.883,0,0,0,5.825,5.825H54.774V56.967H19.049a3.185,3.185,0,0,1,0-6.371ZM47.5,20.163l2.386,7.145H39.57l-1.459-4.1Zm-16.536,0,2.386,7.145H23.034l-1.459-4.1Zm27.78,9.8-5.026,18H18l-4.632-18Z" transform="translate(0 -15.683)"/><path class="a" d="M375.576,487.171a5.559,5.559,0,0,0,0,11.117,5.509,5.509,0,0,0,5.559-5.559A5.59,5.59,0,0,0,375.576,487.171Zm0,8.6a3.046,3.046,0,0,1,0-6.092,2.991,2.991,0,0,1,3.046,3.046A3.079,3.079,0,0,1,375.576,495.775Z" transform="translate(-332.439 -439.288)"/><path class="a" d="M174.885,487.171a5.559,5.559,0,1,0,5.559,5.559A5.59,5.59,0,0,0,174.885,487.171Zm0,8.6a3.046,3.046,0,1,1,3.046-3.046A3.079,3.079,0,0,1,174.885,495.775Z" transform="translate(-152.13 -439.288)"/></g></g></svg>