<svg xmlns="http://www.w3.org/2000/svg" viewBox="7565 3009 69.837 59"><defs><style>.a{fill:#0060d1;}</style></defs><g transform="translate(7565 2973)"><path class="a" d="M68.633,80.551a8.55,8.55,0,0,0-4.812,1.363,6.781,6.781,0,0,1-7.235,0,9.177,9.177,0,0,0-9.624,0,6.779,6.779,0,0,1-7.234,0,8.548,8.548,0,0,0-4.812-1.363,8.547,8.547,0,0,0-4.812,1.363,6.248,6.248,0,0,1-3.617,1.045,6.249,6.249,0,0,1-3.617-1.045,8.546,8.546,0,0,0-4.812-1.363,10.464,10.464,0,0,0-1.249.071V74.561H27.679v3.672a1.2,1.2,0,1,0,2.408,0V50.479a12.068,12.068,0,0,1,5.44-10.08,12,12,0,0,1,5.426,10.08,1.2,1.2,0,1,0,2.408,0,14.375,14.375,0,0,0-5.43-11.306,12.068,12.068,0,0,1,16.3,11.306,1.2,1.2,0,0,0,2.408,0,14.479,14.479,0,0,0-28.958,0V52.8H16.812V50.479A12.085,12.085,0,0,1,28.883,38.408c.278,0,.559.009.836.028a1.2,1.2,0,0,0,.164-2.4c-.331-.023-.668-.034-1-.034A14.5,14.5,0,0,0,14.4,50.479V81.3c-.422.2-.8.409-1.155.613a6.248,6.248,0,0,1-3.617,1.046,6.248,6.248,0,0,1-3.617-1.045A8.547,8.547,0,0,0,1.2,80.551a1.2,1.2,0,0,0,0,2.408A6.248,6.248,0,0,1,4.821,84a8.548,8.548,0,0,0,4.812,1.363A8.548,8.548,0,0,0,14.444,84a6.247,6.247,0,0,1,3.617-1.045A6.248,6.248,0,0,1,21.677,84a8.547,8.547,0,0,0,4.811,1.363A8.547,8.547,0,0,0,31.3,84a6.779,6.779,0,0,1,7.234,0,9.176,9.176,0,0,0,9.623,0,6.78,6.78,0,0,1,7.234,0,9.178,9.178,0,0,0,9.624,0,6.251,6.251,0,0,1,3.618-1.045,1.2,1.2,0,1,0,0-2.408Zm-51.821-8.4v-7.27H27.679v7.27ZM27.679,55.205v7.27H16.812v-7.27Z"/><path class="a" d="M107.772,366.408a6.25,6.25,0,0,1-3.617-1.045,9.177,9.177,0,0,0-9.624,0,6.779,6.779,0,0,1-7.234,0,9.176,9.176,0,0,0-9.623,0,6.778,6.778,0,0,1-7.233,0,9.176,9.176,0,0,0-9.623,0,6.248,6.248,0,0,1-3.617,1.045,1.2,1.2,0,0,0,0,2.408,8.548,8.548,0,0,0,4.812-1.363,6.779,6.779,0,0,1,7.233,0,9.175,9.175,0,0,0,9.623,0,6.779,6.779,0,0,1,7.234,0,9.176,9.176,0,0,0,9.623,0,6.78,6.78,0,0,1,7.234,0,8.55,8.55,0,0,0,4.812,1.363,1.2,1.2,0,0,0,0-2.408Z" transform="translate(-47.569 -278.633)"/><path class="a" d="M146.913,396a8.547,8.547,0,0,0-4.811,1.363,6.779,6.779,0,0,1-7.234,0,9.176,9.176,0,0,0-9.623,0,6.779,6.779,0,0,1-7.233,0A8.546,8.546,0,0,0,113.2,396a1.2,1.2,0,1,0,0,2.408,6.248,6.248,0,0,1,3.617,1.045,9.175,9.175,0,0,0,9.623,0,6.779,6.779,0,0,1,7.234,0,9.176,9.176,0,0,0,9.623,0,6.247,6.247,0,0,1,3.617-1.045,1.2,1.2,0,0,0,0-2.408Z" transform="translate(-95.139 -305.816)"/></g></svg>