<svg xmlns="http://www.w3.org/2000/svg" viewBox="8396 2501 51.968 59"><defs><style>.a{fill:#0060d1;}</style></defs><g transform="translate(8367.771 2501)"><g transform="translate(28.229)"><path class="a" d="M90.5,43.763h3.89a1.713,1.713,0,0,0,1.711-1.711V40.511A1.713,1.713,0,0,0,94.394,38.8H90.5a1.713,1.713,0,0,0-1.711,1.711v1.542A1.713,1.713,0,0,0,90.5,43.763Zm-.216-3.253a.219.219,0,0,1,.216-.216h3.89a.219.219,0,0,1,.216.216v1.542a.219.219,0,0,1-.216.216H90.5a.219.219,0,0,1-.216-.216Z" transform="translate(-81.249 -33.967)"/><path class="a" d="M274.5,41.812a2.806,2.806,0,1,0-2.806-2.806A2.809,2.809,0,0,0,274.5,41.812Zm0-4.116a1.311,1.311,0,1,1-1.311,1.311A1.312,1.312,0,0,1,274.5,37.7Z" transform="translate(-241.366 -31.691)"/><path class="a" d="M342.6,41.812a2.806,2.806,0,1,0-2.806-2.806A2.808,2.808,0,0,0,342.6,41.812Zm0-4.116a1.311,1.311,0,1,1-1.312,1.311A1.312,1.312,0,0,1,342.6,37.7Z" transform="translate(-300.984 -31.691)"/><path class="a" d="M74.657,0H33.768a5.546,5.546,0,0,0-5.539,5.539V53.461A5.546,5.546,0,0,0,33.768,59H74.656A5.546,5.546,0,0,0,80.2,53.461V5.54A5.546,5.546,0,0,0,74.657,0ZM33.768,1.495H74.656A4.049,4.049,0,0,1,78.7,5.539V12.7H29.724V5.54A4.049,4.049,0,0,1,33.768,1.495Zm40.888,56.01H33.768a4.049,4.049,0,0,1-4.045-4.045V14.194H78.7V53.461A4.049,4.049,0,0,1,74.657,57.505Z" transform="translate(-28.229)"/><path class="a" d="M146.056,168.927a15,15,0,1,0-29.076,7.329l.007.023a15.005,15.005,0,0,0,29.09-7.251A.71.71,0,0,0,146.056,168.927ZM131.371,158.5a13.533,13.533,0,0,1,12.99,9.795c-.305-.018-.6-.028-.89-.028-4.575,0-7.42,2.276-10.171,4.477-2.667,2.134-5.186,4.149-9.237,4.149a15.758,15.758,0,0,1-5.742-1.39,13.511,13.511,0,0,1,13.05-17Zm0,27.018a13.529,13.529,0,0,1-12.408-8.168,15.526,15.526,0,0,0,5.1,1.037c4.575,0,7.42-2.276,10.171-4.477,2.667-2.134,5.186-4.149,9.237-4.149.391,0,.8.02,1.231.058a13.51,13.51,0,0,1-13.331,15.7Z" transform="translate(-105.388 -137.449)"/></g></g></svg>