<svg xmlns="http://www.w3.org/2000/svg" viewBox="8392 2247 59.083 59"><defs><style>.a{fill:#0060d1;}</style></defs><path class="a" d="M18.556,26.115A14.374,14.374,0,1,0,32.93,40.489,14.391,14.391,0,0,0,18.556,26.115Zm0,27.836A13.461,13.461,0,1,1,32.017,40.49,13.476,13.476,0,0,1,18.556,53.951Zm34.133-7.695a6.4,6.4,0,0,0-6.322,5.481h-.413v-19.2c0-4.991-1.452-8.872-4.314-11.538-4.5-4.19-10.8-3.793-11-3.776h-11.3V7.813a7.258,7.258,0,0,0-2.1-5.45A9.691,9.691,0,0,0,10.81.048H2.825a.914.914,0,1,0,0,1.827H10.84a7.9,7.9,0,0,1,5.126,1.8,5.507,5.507,0,0,1,1.543,4.136v9.416H12.427a.914.914,0,0,0,0,1.827h5.082v2.932a18.544,18.544,0,1,0,14.2,31.578h14.66a6.391,6.391,0,1,0,6.322-7.309ZM18.556,57.218A16.729,16.729,0,1,1,35.285,40.49,16.748,16.748,0,0,1,18.556,57.218ZM37.111,40.49A18.563,18.563,0,0,0,19.336,21.974v-2.92l11.37,0c.054-.005,5.764-.367,9.69,3.288,2.476,2.306,3.732,5.738,3.732,10.2v19.2H33.279A18.435,18.435,0,0,0,37.111,40.49ZM52.689,57.218a4.568,4.568,0,1,1,4.568-4.568A4.573,4.573,0,0,1,52.689,57.218Zm.989-4.568a.989.989,0,1,1-.989-.989A.989.989,0,0,1,53.678,52.651ZM19.47,35.748V30.5a.914.914,0,0,0-1.827,0v5.25a4.834,4.834,0,1,0,1.827,0ZM18.556,43.5a3,3,0,0,1-.914-5.857v2.85a.914.914,0,0,0,1.827,0v-2.85a3,3,0,0,1-.914,5.857Zm28.3-1.237V31.868a.914.914,0,1,1,1.827,0V42.259a.914.914,0,0,1-1.827,0Z" transform="translate(8392 2246.954)"/></svg>